<svg width="172" height="108" viewBox="0 0 172 108" fill="none" xmlns="http://www.w3.org/2000/svg">
<path d="M27.8119 5.72645L33.8034 32H29.4312L26.1926 16.0496L18.096 32.2834H17.2863L9.27064 16.0496L6.03199 32H1.61933L7.69179 5.72645H8.38001L17.6911 24.6321L27.1237 5.72645H27.8119ZM46.0293 12.2037C50.0371 12.2037 54.1259 13.8636 54.1259 18.843V32H51.0087L50.6444 29.0447C49.5918 30.745 47.5677 32.5668 44.0861 32.5668C40.4426 32.5668 37.0421 30.4616 37.0421 26.5753C37.0421 22.0816 41.0904 20.6647 45.5435 20.6647C48.4988 20.6647 50.1181 20.5028 50.1181 18.6001C50.1181 16.8593 48.4583 15.8067 45.7055 15.8067C42.3858 15.8067 39.8354 17.2641 38.4185 18.6001H38.3375L38.459 14.9566C40.0378 13.6207 43.155 12.2037 46.0293 12.2037ZM44.9768 29.3281C48.1749 29.3281 50.4015 27.1015 50.4015 24.2677V22.2436C49.5109 23.4176 47.6891 23.6605 45.3006 23.6605C42.7907 23.6605 41.0499 24.5511 41.0499 26.4943C41.0499 28.397 43.0336 29.3281 44.9768 29.3281ZM58.8068 32V6.0908H62.8551V32H58.8068ZM75.7288 12.8515L67.7941 21.1505L76.5384 31.919V32H71.478L62.8551 21.1505L70.9922 12.7705H75.7288V12.8515ZM81.3493 8.92462C79.8109 8.92462 78.6774 7.83157 78.6774 6.45514C78.6774 5.07872 79.8109 3.98567 81.3493 3.98567C82.9281 3.98567 84.0616 5.07872 84.0616 6.45514C84.0616 7.83157 82.9281 8.92462 81.3493 8.92462ZM83.3734 32H79.3251V12.7705H83.3734V32ZM98.2959 12.2847C102.992 12.2847 105.745 15.5234 105.745 20.7052V32H101.696V21.7173C101.696 17.1022 99.7128 15.7258 97.2433 15.7258C94.7738 15.7258 92.4663 17.6285 92.4663 22.0816V32H88.418V12.7705H91.5757L91.9805 16.0496C92.9926 14.1874 95.0977 12.2847 98.2959 12.2847ZM125.335 16.0496L125.781 12.7705H128.898V29.2067C128.898 36.2102 124.931 39.6918 119.182 39.6918C115.862 39.6918 112.745 38.7202 110.681 37.0199V33.3359H110.762C112.786 35.0767 115.862 36.1698 118.858 36.1698C122.421 36.1698 124.85 33.9837 124.85 29.9758V28.4375C123.595 30.2187 121.368 31.6761 118.251 31.6761C113.474 31.6761 109.426 28.0327 109.426 21.9602C109.426 16.0901 113.595 12.2442 118.534 12.2442C121.813 12.2442 124.202 13.904 125.335 16.0496ZM119.425 28.1946C123.028 28.1946 125.052 25.1988 125.052 21.9197C125.052 18.762 123.028 15.7258 119.384 15.7258C115.336 15.7258 113.595 18.681 113.595 21.9197C113.595 25.1988 115.458 28.1946 119.425 28.1946ZM12.4688 41.8479H13.2785L25.3424 67.919V68H20.6464L18.015 61.9275H7.69179L5.06039 68H0.283382V67.919L12.4688 41.8479ZM12.9141 48.9729H12.8332C11.5782 52.0092 10.1208 55.5312 8.82532 58.5269H16.8005C15.505 55.5312 14.1286 52.0092 12.9141 48.9729ZM32.9457 68H28.7354V41.4836H32.9457V68ZM15.667 90.4786V90.5596C17.934 90.8025 21.7394 92.4218 21.7394 96.7535C21.7394 101.652 17.7721 104 11.5377 104H3.1172V78.0908H10.4042C16.6386 78.0908 20.2416 80.4793 20.2416 84.6895C20.2416 88.2925 17.4077 90.1548 15.667 90.4786ZM11.0519 81.6533H7.206V89.1427H11.2948C13.9262 89.1427 16.1123 88.1711 16.1123 85.3778C16.1123 82.4225 13.4404 81.6533 11.0519 81.6533ZM7.206 100.437H12.0235C15.1407 100.437 17.6102 99.4254 17.6102 96.3892C17.6102 93.5958 15.2217 92.5028 11.983 92.5028H7.206V100.437ZM43.7211 95.62H31.5357C30.4022 95.62 29.4711 95.7819 29.4711 96.9559C29.4711 98.9396 31.8596 101.004 35.5436 101.004C39.268 101.004 41.778 99.5469 42.9115 98.2919H42.9924L42.952 101.814C41.778 102.907 39.1061 104.607 35.3007 104.607C29.3092 104.607 25.1394 100.518 25.1394 94.4055C25.1394 88.6569 29.3092 84.1633 35.0173 84.1633C39.7943 84.1633 43.0734 87.2805 43.7211 91.6526V95.62ZM29.1472 93.5554C29.7545 93.0696 30.6451 92.6647 32.1025 92.6647H39.7538C39.7538 89.8714 37.8106 87.6853 34.6934 87.6853C31.2119 87.6853 29.3901 90.1143 29.1472 93.5554ZM57.6151 84.2847C62.3111 84.2847 65.064 87.5234 65.064 92.7052V104H61.0157V93.7173C61.0157 89.1022 59.032 87.7258 56.5625 87.7258C54.093 87.7258 51.7855 89.6285 51.7855 94.0816V104H47.7372V84.7705H50.8949L51.2997 88.0496C52.3118 86.1874 54.4169 84.2847 57.6151 84.2847ZM87.367 95.62H75.1816C74.0481 95.62 73.117 95.7819 73.117 96.9559C73.117 98.9396 75.5055 101.004 79.1894 101.004C82.9139 101.004 85.4238 99.5469 86.5574 98.2919H86.6383L86.5978 101.814C85.4238 102.907 82.7519 104.607 78.9465 104.607C72.955 104.607 68.7853 100.518 68.7853 94.4055C68.7853 88.6569 72.955 84.1633 78.6631 84.1633C83.4402 84.1633 86.7193 87.2805 87.367 91.6526V95.62ZM72.7931 93.5554C73.4003 93.0696 74.291 92.6647 75.7484 92.6647H83.3997C83.3997 89.8714 81.4565 87.6853 78.3393 87.6853C74.8577 87.6853 73.036 90.1143 72.7931 93.5554ZM96.4839 84.7705H101.787V88.0901H96.4839V104H92.4356V88.0901H89.4804V84.7705H92.4356V83.718C92.4356 79.4267 95.229 77.605 98.4271 77.605C99.5202 77.605 100.613 77.8074 101.463 78.2122V81.208H101.382C100.735 80.9246 100.046 80.7627 99.3582 80.7627C96.4839 80.7627 96.4839 83.2322 96.4839 84.1228V84.7705ZM107.284 80.9246C105.745 80.9246 104.612 79.8316 104.612 78.4551C104.612 77.0787 105.745 75.9857 107.284 75.9857C108.863 75.9857 109.996 77.0787 109.996 78.4551C109.996 79.8316 108.863 80.9246 107.284 80.9246ZM109.308 104H105.26V84.7705H109.308V104ZM123.299 104.607C117.51 104.607 113.3 100.316 113.3 94.365C113.3 88.6569 117.51 84.2037 123.34 84.2037C126.74 84.2037 128.886 85.4182 130.1 86.3089V89.9928H130.019C128.724 88.8593 126.538 87.7663 123.785 87.7663C120.142 87.7663 117.429 90.0738 117.429 94.365C117.429 98.6157 120.142 101.045 123.785 101.045C126.74 101.045 128.845 99.7898 130.181 98.5753H130.262V102.3C129.048 103.312 126.983 104.607 123.299 104.607ZM136.737 80.9246C135.198 80.9246 134.065 79.8316 134.065 78.4551C134.065 77.0787 135.198 75.9857 136.737 75.9857C138.316 75.9857 139.449 77.0787 139.449 78.4551C139.449 79.8316 138.316 80.9246 136.737 80.9246ZM138.761 104H134.713V84.7705H138.761V104ZM151.902 84.2037C155.91 84.2037 159.999 85.8636 159.999 90.843V104H156.882L156.517 101.045C155.465 102.745 153.441 104.567 149.959 104.567C146.316 104.567 142.915 102.462 142.915 98.5753C142.915 94.0816 146.963 92.6647 151.416 92.6647C154.372 92.6647 155.991 92.5028 155.991 90.6001C155.991 88.8593 154.331 87.8067 151.578 87.8067C148.259 87.8067 145.708 89.2641 144.291 90.6001H144.21L144.332 86.9566C145.911 85.6207 149.028 84.2037 151.902 84.2037ZM150.85 101.328C154.048 101.328 156.274 99.1015 156.274 96.2677V94.2436C155.384 95.4176 153.562 95.6605 151.173 95.6605C148.664 95.6605 146.923 96.5511 146.923 98.4943C146.923 100.397 148.906 101.328 150.85 101.328ZM168.728 104H164.68V78.0908H168.728V104Z" fill="white"/>
</svg>
