<svg width="200" height="200" viewBox="0 0 200 200" fill="none" xmlns="http://www.w3.org/2000/svg">
<rect x="1" y="1" width="198" height="198" rx="49" fill="white"/>
<rect x="1" y="1" width="198" height="198" rx="49" stroke="black" stroke-width="2"/>
<g clip-path="url(#clip0_20_4287)">
<path d="M155.767 137.194L84.0349 125.294V128.591L142.162 144.868L143.51 149.383L155.767 153.022V137.201V137.194Z" fill="#9CA7FF"/>
<path d="M115.424 119.651L44.2325 139.925V124.105L106.25 114.413L114.168 115.22L115.424 119.651Z" fill="#5B52FF"/>
<path d="M115.973 98.6218V102.368L44.2325 114.237V98.4163L90.529 96.7109H90.5366L115.973 98.6218Z" fill="#5B52FF"/>
<path d="M115.973 79.1684V83.9115L44.2325 88.5252V72.7047L84.0348 75.2628L101.302 76.3743L102.459 79.6709L115.973 79.1684Z" fill="#5B52FF"/>
<path d="M155.767 111.502V127.315L115.432 119.649H115.424L114.168 115.218L106.25 114.411L84.0349 112.157V108.853L155.767 111.502Z" fill="#9CA7FF"/>
<path d="M155.767 85.7911V101.612L115.973 98.6196L90.5366 96.7086H90.529L89.7677 94.0973L84.0349 93.7014V90.3972L155.767 85.7911Z" fill="#9CA7FF"/>
<path d="M44.2325 62.8308L115.973 65.4726V58.8718L44.2325 47.0103V62.8308Z" fill="#5B52FF"/>
<path d="M155.767 61.8696V77.6825L115.973 79.1671L102.459 79.6695L101.302 76.373L84.0349 75.2614V73.7312L155.767 61.8696Z" fill="#9CA7FF"/>
</g>
<defs>
<clipPath id="clip0_20_4287">
<rect width="111.535" height="106" fill="white" transform="translate(44.2326 47.0078)"/>
</clipPath>
</defs>
</svg>
