<svg width="107" height="92" viewBox="0 0 107 92" fill="none" xmlns="http://www.w3.org/2000/svg">
<g clip-path="url(#clip0_20_4181)">
<path d="M106.304 45.975V46.0151C106.094 46.0151 105.873 46.0151 105.653 46.0151C105.433 46.0151 105.213 46.0151 105.003 46.0251C103.231 46.0551 101.449 46.1152 99.6773 46.2053C99.367 46.2153 99.0467 46.2253 98.7264 46.2553C98.2059 46.2753 97.6854 46.3054 97.1649 46.3454C97.0848 46.3454 97.0047 46.3554 96.9347 46.3654C96.294 46.3954 95.6534 46.4455 95.0228 46.4955C94.9227 46.4955 94.8326 46.5056 94.7325 46.5156C94.0218 46.5656 93.3211 46.6257 92.6104 46.6857C91.8497 46.7558 91.089 46.8259 90.3282 46.9059C89.6776 46.966 89.0269 47.0361 88.3763 47.1161C88.046 47.1462 87.7157 47.1862 87.3753 47.2263C87.045 47.2563 86.7147 47.2963 86.3844 47.3464C86.2342 47.3664 86.0941 47.3764 85.9439 47.3964C85.2132 47.4865 84.4725 47.5866 83.7418 47.6867L76.1844 48.7277C74.763 48.9279 73.3616 49.2182 72.0103 49.5986C64.0425 51.7907 57.346 56.9457 53.1419 63.8125C48.9478 56.9457 42.2413 51.7907 34.2735 49.5986C32.9222 49.2182 31.5208 48.9279 30.0994 48.7277L22.552 47.6867C21.8213 47.5866 21.0906 47.4865 20.3499 47.3964C20.1997 47.3764 20.0596 47.3664 19.9094 47.3464C19.5791 47.3063 19.2488 47.2663 18.9085 47.2263C18.5781 47.1862 18.2478 47.1462 17.9175 47.1161C17.2669 47.0361 16.6162 46.966 15.9656 46.9059C15.2048 46.8259 14.4341 46.7558 13.6633 46.6857C12.9226 46.6157 12.1819 46.5556 11.4312 46.5056C11.1109 46.4855 10.7905 46.4555 10.4702 46.4355C10.1499 46.4055 9.83961 46.3854 9.5193 46.3754C9.46925 46.3754 9.4192 46.3654 9.36915 46.3654C9.24903 46.3454 9.12891 46.3354 9.0088 46.3354H8.86866C8.72852 46.3354 8.57838 46.3154 8.43824 46.3054C8.06788 46.2753 7.69752 46.2553 7.32716 46.2353C7.09693 46.2253 6.86671 46.2153 6.63648 46.2053C4.85474 46.1152 3.08301 46.0551 1.30127 46.0251C0.87085 46.0051 0.44043 46.0051 0 46.0051V45.965C0.44043 45.965 0.87085 45.965 1.30127 45.945C8.41822 45.8149 15.5051 45.2543 22.552 44.2834L30.0994 43.2424C31.5308 43.0422 32.9422 42.7519 34.3035 42.3715C42.2613 40.1694 48.9478 35.0243 53.1419 28.1676C57.346 35.0243 64.0325 40.1694 71.9803 42.3715C73.3416 42.7519 74.753 43.0422 76.1844 43.2424L83.7418 44.2834C84.6226 44.4035 85.5035 44.5236 86.3844 44.6237C87.045 44.7138 87.7157 44.7839 88.3763 44.8539C89.0269 44.934 89.6776 45.0041 90.3282 45.0641C91.089 45.1442 91.8497 45.2243 92.6104 45.2844C93.3211 45.3444 94.0218 45.4045 94.7325 45.4545C95.4632 45.5146 96.1939 45.5646 96.9347 45.6047C97.0047 45.6147 97.0848 45.6247 97.1649 45.6247C97.9957 45.6848 98.8365 45.7248 99.6773 45.7648C101.449 45.8549 103.231 45.915 105.003 45.945C105.433 45.965 105.873 45.965 106.304 45.965V45.975Z" fill="#8896FF"/>
<path d="M59.7083 0.400293L59.6682 0.720606C59.6682 0.720606 59.6582 0.670557 59.6582 0.650538C59.6582 0.56045 59.6783 0.470362 59.7083 0.400293Z" fill="#3E62FF"/>
<path d="M53.1419 63.8225C50.8797 67.5262 49.3282 71.7203 48.7076 76.2146L46.6255 91.3194V91.3494L46.5855 91.5596C46.4954 91.8199 46.2552 92.0001 45.9749 92.0001C45.6646 92.0001 45.4143 91.7899 45.3443 91.4996C45.3343 91.4495 45.3243 91.3995 45.3243 91.3494L43.2322 76.2146C41.4605 63.3721 32.1914 52.992 19.9595 49.6087C18.5882 49.2283 17.1868 48.938 15.7554 48.7378L0.650635 46.6458C0.650635 46.6458 0.540528 46.6358 0.490479 46.6257C0.220215 46.5557 0.0100098 46.3154 0 46.0152C0.44043 46.0152 0.87085 46.0152 1.30127 46.0352C3.08301 46.0652 4.85474 46.1253 6.63648 46.2153C6.86671 46.2254 7.09693 46.2354 7.32716 46.2454C7.69752 46.2654 8.06788 46.2854 8.43824 46.3154C8.57838 46.3255 8.72852 46.3355 8.86866 46.3455H9.0088C9.12891 46.3455 9.24903 46.3555 9.36915 46.3755C9.4192 46.3755 9.46925 46.3855 9.5193 46.3855C9.83961 46.3955 10.1499 46.4155 10.4702 46.4456C10.7905 46.4656 11.1109 46.4956 11.4312 46.5156C12.1819 46.5657 12.9226 46.6257 13.6633 46.6958C14.4341 46.7659 15.2048 46.836 15.9656 46.916C16.6162 46.9761 17.2669 47.0462 17.9175 47.1262C18.2478 47.1563 18.5781 47.1963 18.9085 47.2363C19.2488 47.2764 19.5791 47.3164 19.9094 47.3565C20.0596 47.3765 20.1997 47.3865 20.3499 47.4065C21.0906 47.4966 21.8213 47.5967 22.552 47.6968L30.0994 48.7378C31.5208 48.938 32.9222 49.2283 34.2735 49.6087C42.2413 51.8008 48.9478 56.9558 53.1419 63.8225Z" fill="#EA94F2"/>
<path d="M106.304 46.0152C106.294 46.3154 106.094 46.5557 105.813 46.6257L105.673 46.6458H105.653L90.5384 48.7378C89.107 48.938 87.6956 49.2283 86.3343 49.6087C74.0923 52.992 64.8333 63.3721 63.0615 76.2146L60.9495 91.4795C60.8894 91.7798 60.6292 92.0001 60.3089 92.0001C60.0486 92.0001 59.8084 91.8399 59.7083 91.5997L59.6682 91.2794V91.2193L57.5762 76.2146C56.9556 71.7203 55.4141 67.5262 53.1419 63.8225C57.346 56.9558 64.0425 51.8008 72.0103 49.6087C73.3616 49.2283 74.763 48.938 76.1844 48.7378L83.7417 47.6968C84.4725 47.5967 85.2132 47.4966 85.9439 47.4065C86.094 47.3865 86.2342 47.3765 86.3843 47.3565C86.7147 47.3064 87.045 47.2664 87.3753 47.2363C87.7156 47.1963 88.0459 47.1563 88.3763 47.1262C89.0269 47.0462 89.6775 46.9761 90.3282 46.916C91.0889 46.836 91.8497 46.7659 92.6104 46.6958C93.3211 46.6358 94.0218 46.5757 94.7325 46.5256C94.8326 46.5256 94.9227 46.5056 95.0228 46.5056C95.6534 46.4556 96.294 46.4055 96.9346 46.3755C97.0047 46.3655 97.0848 46.3555 97.1649 46.3555C97.6854 46.3154 98.2059 46.2854 98.7264 46.2654C99.0467 46.2354 99.367 46.2254 99.6773 46.2153C101.449 46.1253 103.231 46.0652 105.003 46.0352C105.213 46.0252 105.433 46.0151 105.653 46.0252C105.873 46.0252 106.094 46.0252 106.304 46.0252V46.0152Z" fill="#3E62FF"/>
<path d="M59.7083 91.5994C59.6783 91.5293 59.6582 91.4392 59.6582 91.3491C59.6582 91.3291 59.6582 91.2991 59.6682 91.2791L59.7083 91.5994Z" fill="#3E62FF"/>
<path d="M53.1419 28.1775C48.9478 35.0342 42.2613 40.1792 34.3035 42.3814C32.9422 42.7618 31.5308 43.052 30.0994 43.2522L22.552 44.2933C15.5051 45.2642 8.41822 45.8247 1.30127 45.9549C0.87085 45.9749 0.44043 45.9749 0 45.9749C0.0100098 45.6746 0.220215 45.4344 0.490479 45.3643C0.540528 45.3543 0.600586 45.3443 0.650635 45.3443L15.7554 43.2522C17.1868 43.052 18.5882 42.7618 19.9595 42.3814C32.1914 38.9981 41.4605 28.628 43.2322 15.7854L45.3243 0.650635C45.3243 0.650635 45.3343 0.550538 45.3443 0.500489C45.4143 0.210205 45.6646 0 45.9749 0C46.2552 0 46.4954 0.180176 46.5855 0.44043L46.6255 0.650635V0.680665L48.7076 15.7854C49.3282 20.2798 50.8797 24.4739 53.1419 28.1775Z" fill="#CED0FF"/>
<path d="M106.304 45.9749C105.873 45.9749 105.433 45.9749 105.003 45.9549C103.231 45.9248 101.449 45.8648 99.6773 45.7747C98.8365 45.7347 97.9957 45.6946 97.1649 45.6346C97.0848 45.6346 97.0047 45.6246 96.9346 45.6145C96.1939 45.5745 95.4632 45.5245 94.7325 45.4644C94.0218 45.4143 93.3211 45.3543 92.6104 45.2942C91.8497 45.2242 91.0889 45.1541 90.3282 45.074C89.6775 45.014 89.0269 44.9439 88.3763 44.8638C87.7156 44.7937 87.045 44.7237 86.3843 44.6336C85.5035 44.5335 84.6226 44.4134 83.7417 44.2933L76.1844 43.2522C74.753 43.052 73.3416 42.7618 71.9803 42.3814C64.0325 40.1792 57.346 35.0342 53.1419 28.1775C55.4141 24.4739 56.9556 20.2798 57.5762 15.7854L59.6682 0.720704L59.7083 0.400391C59.8084 0.160156 60.0486 0 60.3089 0C60.6292 0 60.8894 0.220215 60.9495 0.520508L63.0615 15.7854C64.8333 28.628 74.0923 38.9981 86.3343 42.3814C87.6956 42.7618 89.107 43.052 90.5384 43.2522L105.653 45.3443H105.673L105.813 45.3643C106.094 45.4344 106.294 45.6746 106.304 45.9749Z" fill="#B0BFFF"/>
</g>
<defs>
<clipPath id="clip0_20_4181">
<rect width="106.304" height="91.9998" fill="white"/>
</clipPath>
</defs>
</svg>
