<svg width="142" height="123" viewBox="0 0 142 123" fill="none" xmlns="http://www.w3.org/2000/svg">
<g clip-path="url(#clip0_20_4370)">
<path d="M142 61.413V61.4665C141.719 61.4665 141.425 61.4665 141.131 61.4665C140.837 61.4665 140.543 61.4665 140.262 61.4799C137.895 61.52 135.515 61.6002 133.148 61.7206C132.734 61.7339 132.306 61.7473 131.878 61.7874C131.183 61.8142 130.488 61.8543 129.792 61.9078C129.685 61.9078 129.578 61.9211 129.485 61.9345C128.629 61.9746 127.773 62.0415 126.931 62.1083C126.797 62.1083 126.677 62.1217 126.543 62.1351C125.594 62.2019 124.658 62.2821 123.708 62.3624C122.692 62.456 121.676 62.5496 120.66 62.6565C119.791 62.7368 118.922 62.8304 118.053 62.9373C117.611 62.9774 117.17 63.0309 116.715 63.0844C116.274 63.1245 115.833 63.178 115.392 63.2449C115.191 63.2716 115.004 63.285 114.803 63.3117C113.827 63.4321 112.838 63.5658 111.862 63.6995L101.767 65.0901C99.868 65.3575 97.996 65.7452 96.1909 66.2533C85.5476 69.1816 76.6024 76.0676 70.9866 85.2401C65.3842 76.0676 56.4256 69.1816 45.7823 66.2533C43.9772 65.7452 42.1053 65.3575 40.2066 65.0901L30.1249 63.6995C29.1488 63.5658 28.1727 63.4321 27.1832 63.3117C26.9827 63.285 26.7955 63.2716 26.5949 63.2449C26.1537 63.1914 25.7124 63.1379 25.2578 63.0844C24.8166 63.0309 24.3753 62.9774 23.9341 62.9373C23.065 62.8304 22.1959 62.7368 21.3267 62.6565C20.3105 62.5496 19.281 62.456 18.2514 62.3624C17.262 62.2688 16.2725 62.1885 15.2697 62.1217C14.8418 62.095 14.4139 62.0548 13.9861 62.0281C13.5582 61.988 13.1437 61.9612 12.7158 61.9479C12.649 61.9479 12.5821 61.9345 12.5152 61.9345C12.3548 61.9078 12.1943 61.8944 12.0339 61.8944H11.8467C11.6595 61.8944 11.4589 61.8676 11.2717 61.8543C10.777 61.8142 10.2823 61.7874 9.78757 61.7607C9.48003 61.7473 9.1725 61.7339 8.86497 61.7206C6.48493 61.6002 4.11827 61.52 1.73823 61.4799C1.16328 61.4531 0.588324 61.4531 0 61.4531V61.3997C0.588324 61.3997 1.16328 61.3997 1.73823 61.3729C11.245 61.1991 20.7117 60.4503 30.1249 59.1533L40.2066 57.7628C42.1186 57.4953 44.0039 57.1076 45.8224 56.5995C56.4523 53.6579 65.3842 46.7852 70.9866 37.626C76.6024 46.7852 85.5343 53.6579 96.1508 56.5995C97.9693 57.1076 99.8546 57.4953 101.767 57.7628L111.862 59.1533C113.038 59.3138 114.215 59.4742 115.392 59.608C116.274 59.7283 117.17 59.8219 118.053 59.9155C118.922 60.0225 119.791 60.116 120.66 60.1963C121.676 60.3032 122.692 60.4102 123.708 60.4904C124.658 60.5707 125.594 60.6509 126.543 60.7177C127.519 60.798 128.495 60.8648 129.485 60.9183C129.578 60.9317 129.685 60.9451 129.792 60.9451C130.902 61.0253 132.025 61.0788 133.148 61.1322C135.515 61.2526 137.895 61.3328 140.262 61.3729C140.837 61.3997 141.425 61.3997 142 61.3997V61.413Z" fill="#8896FF"/>
<path d="M79.758 0.534789L79.7045 0.962661C79.7045 0.962661 79.6911 0.895806 79.6911 0.869064C79.6911 0.748725 79.7179 0.628386 79.758 0.534789Z" fill="#3E62FF"/>
<path d="M70.9866 85.2534C67.9648 90.2007 65.8923 95.8032 65.0633 101.807L62.2821 121.984V122.024L62.2286 122.304C62.1083 122.652 61.7874 122.893 61.413 122.893C60.9985 122.893 60.6642 122.612 60.5706 122.224C60.5572 122.157 60.5439 122.091 60.5439 122.024L57.7493 101.807C55.3827 84.6517 43.0011 70.786 26.6618 66.2666C24.8299 65.7585 22.958 65.3708 21.0459 65.1034L0.869115 62.3088C0.869115 62.3088 0.722034 62.2954 0.655179 62.2821C0.294162 62.1885 0.013371 61.8676 0 61.4664C0.588324 61.4664 1.16328 61.4664 1.73823 61.4932C4.11827 61.5333 6.48493 61.6135 8.86497 61.7339C9.1725 61.7472 9.48003 61.7606 9.78757 61.774C10.2823 61.8007 10.777 61.8275 11.2717 61.8676C11.4589 61.8809 11.6595 61.8943 11.8467 61.9077H12.0339C12.1943 61.9077 12.3548 61.9211 12.5152 61.9478C12.5821 61.9478 12.649 61.9612 12.7158 61.9612C13.1437 61.9745 13.5582 62.0013 13.9861 62.0414C14.4139 62.0681 14.8418 62.1083 15.2697 62.135C16.2725 62.2019 17.262 62.2821 18.2514 62.3757C19.281 62.4693 20.3105 62.5629 21.3267 62.6698C22.1959 62.7501 23.065 62.8437 23.9341 62.9506C24.3753 62.9907 24.8166 63.0442 25.2578 63.0977C25.7124 63.1512 26.1537 63.2047 26.5949 63.2582C26.7955 63.2849 26.9827 63.2983 27.1832 63.325C28.1727 63.4454 29.1488 63.5791 30.1249 63.7128L40.2066 65.1034C42.1053 65.3708 43.9772 65.7585 45.7823 66.2666C56.4256 69.1949 65.3842 76.0809 70.9866 85.2534Z" fill="#EA94F2"/>
<path d="M142 61.4664C141.987 61.8676 141.719 62.1885 141.345 62.2821L141.158 62.3088H141.131L120.941 65.1034C119.029 65.3708 117.143 65.7585 115.325 66.2666C98.9721 70.786 86.6039 84.6517 84.2372 101.807L81.4159 122.197C81.3357 122.599 80.9881 122.893 80.5602 122.893C80.2126 122.893 79.8917 122.679 79.7579 122.358L79.7045 121.93V121.85L76.9099 101.807C76.0809 95.8032 74.0218 90.2007 70.9866 85.2534C76.6024 76.0809 85.5476 69.1949 96.1909 66.2666C97.996 65.7585 99.8679 65.3708 101.767 65.1034L111.862 63.7128C112.838 63.5791 113.827 63.4454 114.803 63.325C115.004 63.2983 115.191 63.2849 115.392 63.2582C115.833 63.1913 116.274 63.1378 116.715 63.0977C117.17 63.0442 117.611 62.9907 118.052 62.9506C118.922 62.8437 119.791 62.7501 120.66 62.6698C121.676 62.5629 122.692 62.4693 123.708 62.3757C124.658 62.2954 125.594 62.2152 126.543 62.1484C126.677 62.1484 126.797 62.1216 126.931 62.1216C127.773 62.0548 128.629 61.9879 129.485 61.9478C129.578 61.9344 129.685 61.9211 129.792 61.9211C130.487 61.8676 131.183 61.8275 131.878 61.8007C132.306 61.7606 132.734 61.7472 133.148 61.7339C135.515 61.6135 137.895 61.5333 140.262 61.4932C140.542 61.4798 140.837 61.4664 141.131 61.4798C141.425 61.4798 141.719 61.4798 142 61.4798V61.4664Z" fill="#3E62FF"/>
<path d="M79.758 122.358C79.7179 122.264 79.6911 122.144 79.6911 122.024C79.6911 121.997 79.6912 121.957 79.7045 121.93L79.758 122.358Z" fill="#3E62FF"/>
<path d="M70.9866 37.6393C65.3842 46.7985 56.4523 53.6712 45.8224 56.6128C44.0039 57.1209 42.1186 57.5086 40.2066 57.7761L30.1249 59.1667C20.7117 60.4636 11.245 61.2124 1.73823 61.3862C1.16328 61.413 0.588324 61.413 0 61.413C0.013371 61.0118 0.294162 60.6909 0.655179 60.5973C0.722034 60.584 0.80226 60.5706 0.869115 60.5706L21.0459 57.7761C22.958 57.5086 24.8299 57.1209 26.6618 56.6128C43.0011 52.0934 55.3827 38.241 57.7493 21.0861L60.5439 0.869115C60.5439 0.869115 60.5572 0.735405 60.5706 0.66855C60.6642 0.280791 60.9985 0 61.413 0C61.7874 0 62.1083 0.240678 62.2286 0.588324L62.2821 0.869115V0.909228L65.0633 21.0861C65.8923 27.0896 67.9648 32.6921 70.9866 37.6393Z" fill="#CED0FF"/>
<path d="M142 61.413C141.425 61.413 140.837 61.413 140.262 61.3862C137.895 61.3461 135.515 61.2659 133.148 61.1456C132.025 61.0921 130.902 61.0386 129.792 60.9584C129.685 60.9584 129.578 60.945 129.485 60.9316C128.495 60.8781 127.519 60.8113 126.543 60.7311C125.594 60.6642 124.658 60.584 123.708 60.5037C122.692 60.4102 121.676 60.3166 120.66 60.2096C119.791 60.1294 118.922 60.0358 118.052 59.9288C117.17 59.8352 116.274 59.7416 115.392 59.6213C114.215 59.4876 113.038 59.3271 111.862 59.1667L101.767 57.7761C99.8545 57.5086 97.9692 57.1209 96.1508 56.6128C85.5342 53.6712 76.6024 46.7985 70.9866 37.6393C74.0218 32.6921 76.0809 27.0896 76.9099 21.0861L79.7045 0.962712L79.7579 0.53484C79.8917 0.213936 80.2126 0 80.5602 0C80.9881 0 81.3357 0.294162 81.4159 0.695292L84.2372 21.0861C86.6039 38.241 98.9721 52.0934 115.325 56.6128C117.143 57.1209 119.029 57.5086 120.941 57.7761L141.131 60.5706H141.158L141.345 60.5973C141.719 60.6909 141.987 61.0118 142 61.413Z" fill="#B0BFFF"/>
</g>
<defs>
<clipPath id="clip0_20_4370">
<rect width="142" height="122.893" fill="white"/>
</clipPath>
</defs>
</svg>
