<svg width="460" height="86" viewBox="0 0 460 86" fill="none" xmlns="http://www.w3.org/2000/svg">
<g clip-path="url(#clip0_20_3441)">
<path d="M55.4522 71.1591C52.8923 73.719 43.8577 68.8411 35.2104 60.2539L30.9998 64.4645C41.3911 74.8194 53.0062 79.9945 56.9749 76.0259C58.2983 74.7024 58.6034 72.5299 58.0421 69.8372C57.4097 69.5511 56.7709 69.2427 56.1258 68.9123C56.1764 69.8831 55.9629 70.65 55.4522 71.1607V71.1591Z" fill="#9CA7FF"/>
<path d="M30.7423 29.108C26.693 27.8352 23.4073 27.9744 21.5558 29.8259C16.9231 34.4586 22.9931 48.0375 35.1126 60.1571C35.1458 60.1903 35.1774 60.2219 35.2106 60.2535L40.3541 55.11C40.2893 55.0452 40.2244 54.982 40.1596 54.9171C30.1146 44.8721 24.3829 34.3163 27.3586 31.3406C28.1919 30.5074 29.6197 30.3571 31.4633 30.792C31.3463 30.5358 31.2309 30.2781 31.1218 30.0235C30.989 29.7152 30.864 29.41 30.7423 29.1065V29.108Z" fill="#5B52FF"/>
<path d="M72.2805 56.1307C73.1834 58.8534 73.1597 60.969 72.0149 62.1153C68.723 65.4073 57.413 59.4416 46.6865 48.7783L40.3524 55.1124C53.34 68.0604 68.1458 74.2506 73.4569 68.9395C75.9994 66.3971 75.9045 61.6805 73.6988 56.031C73.2656 56.099 72.8087 56.1322 72.328 56.1322C72.3122 56.1322 72.2964 56.1322 72.2805 56.1322V56.1307Z" fill="#5B52FF"/>
<path d="M65.7361 29.7745L65.5811 29.8868L65.0894 30.3785L65.1052 30.3943C72.3975 37.6913 76.6855 45.2287 74.6806 47.2336C74.3834 47.5308 73.966 47.6905 73.4442 47.719C73.4047 47.7221 73.362 47.7237 73.3209 47.7253C72.8354 47.7364 72.2678 47.6431 71.6322 47.4534C68.2722 46.4604 62.9975 42.8079 57.843 37.6566L57.8272 37.6407L52.4449 43.0214L52.4655 43.0419C59.0668 49.6353 66.2642 53.8681 71.2116 54.4926C72.1492 54.6144 73.0062 54.6033 73.762 54.4531C73.8268 54.4404 73.8916 54.4246 73.9549 54.4104C74.7723 54.2222 75.4665 53.8586 76.0088 53.3178C79.6723 49.6543 75.0712 39.1175 65.7361 29.7729V29.7745Z" fill="#9CA7FF"/>
<path d="M32.3874 15.7885C29.7548 18.4211 30.1264 23.5519 32.8554 29.6757C33.0926 30.2085 33.3472 30.7493 33.6207 31.2964C36.3514 36.7687 40.8213 42.8925 46.6067 48.6779L46.6968 48.7681L52.4206 43.0443C52.3557 42.9811 52.2909 42.9162 52.2261 42.8514C41.4442 32.068 35.3884 20.641 38.6994 17.3285C40.1303 15.8976 43.0744 16.217 46.8249 17.9088C46.9814 17.5056 47.1791 17.1324 47.421 16.7909C40.796 13.5875 35.1829 12.993 32.3874 15.7885Z" fill="#9CA7FF"/>
<path d="M54.8298 19.2532C56.7319 17.3511 63.0596 20.5925 68.97 26.4949L69.3921 26.0727C61.3504 18.0421 52.2493 14.1224 49.0538 17.3195C45.8583 20.515 49.7764 29.6161 57.8071 37.6578L62.0714 33.3934C56.169 27.4831 52.9276 21.1554 54.8298 19.2532Z" fill="#5B52FF"/>
</g>
<path d="M137.438 28.5453C137.438 29.2686 137.438 31.9506 140.384 31.9506C141.212 31.9807 142.041 31.7547 142.742 31.3027V29.6001H142.696C142.207 29.8713 141.672 30.0295 141.114 30.0521C139.984 30.0521 139.713 29.2384 139.713 27.6639V22.7745H142.907V20.9061H139.713V17.1619H139.668L137.445 18.8871V20.9061H135.607V22.7745H137.445V28.5453H137.438Z" fill="black"/>
<path d="M160.114 31.5285C160.83 31.5511 161.546 31.4004 162.186 31.0765C162.827 30.7601 163.384 30.293 163.806 29.7053V30.5717C163.806 32.8243 162.442 34.0523 160.453 34.0523C158.804 34.0523 157.206 33.4948 155.918 32.4627H155.873V34.5269C157.244 35.5515 158.924 36.0789 160.627 36.0261C163.844 36.0261 166.066 34.0749 166.066 30.1423V20.9059H164.326L164.077 22.7517C163.7 22.0737 163.143 21.5237 162.48 21.1395C161.809 20.7628 161.049 20.582 160.28 20.6121C157.515 20.6121 155.18 22.7668 155.18 26.0665C155.18 29.3663 157.447 31.521 160.114 31.521V31.5285ZM160.747 22.5709C162.789 22.5709 163.926 24.2735 163.926 26.0439C163.926 27.8144 162.789 29.5697 160.747 29.5697C158.555 29.5697 157.508 27.8596 157.508 26.0439C157.508 24.2283 158.48 22.5709 160.747 22.5709Z" fill="black"/>
<path d="M105.419 16.2275H100.304L99.7842 18.0658H104.885L105.419 16.2275Z" fill="black"/>
<path d="M153.59 24.3192C153.59 21.5241 151.3 20.59 149.055 20.6201C147.518 20.6728 146.034 21.2153 144.821 22.1645L144.753 24.2137H144.798C145.921 23.1816 147.382 22.6165 148.904 22.6241C150.419 22.6241 151.375 23.0987 151.375 24.1609C151.375 25.2232 150.441 25.3211 148.791 25.3211C146.298 25.3211 144.037 26.1122 144.037 28.6435C144.037 30.8208 145.936 32.0111 147.978 32.0111C148.708 32.0412 149.432 31.8755 150.08 31.5365C150.72 31.1975 151.27 30.6852 151.654 30.0674L151.857 31.7248H153.605V24.3192H153.59ZM151.488 27.3703C151.488 27.7621 151.398 28.1463 151.247 28.5079C151.089 28.862 150.863 29.1859 150.577 29.4496C150.29 29.7133 149.959 29.9243 149.59 30.0523C149.221 30.1879 148.836 30.2407 148.445 30.2181C147.352 30.2181 146.252 29.7208 146.252 28.6285C146.252 27.5361 147.285 27.0388 148.626 27.0388C149.967 27.0388 150.984 26.8957 151.488 26.2478V27.3854V27.3703Z" fill="black"/>
<path d="M173.261 20.5593C172.507 20.5593 171.761 20.7025 171.068 20.9963C170.375 21.2826 169.742 21.712 169.223 22.2469C168.703 22.7818 168.296 23.4146 168.025 24.1077C167.754 24.8008 167.633 25.5467 167.663 26.285C167.663 29.7053 170.029 31.9955 173.426 31.9955C175.016 32.0181 176.56 31.4606 177.758 30.4285V28.4924H177.713C177.156 29.0122 176.5 29.4115 175.784 29.6751C175.069 29.9313 174.308 30.0443 173.539 30.0066C171.445 30.0066 170.096 28.854 170.096 27.7465C170.096 27.0911 170.609 27.0007 171.264 27.0007H178.188V24.7556C178.052 23.5728 177.472 22.4804 176.553 21.7045C175.634 20.9285 174.459 20.5217 173.253 20.5669L173.261 20.5593ZM171.588 25.3357C170.985 25.3056 170.398 25.4789 169.916 25.8329C170.051 23.9043 171.091 22.5482 173.057 22.5482C173.441 22.5332 173.818 22.5859 174.172 22.7215C174.526 22.8496 174.85 23.0605 175.121 23.3167C175.393 23.5728 175.604 23.8892 175.739 24.2433C175.882 24.5899 175.95 24.9666 175.935 25.3357H171.596H171.588Z" fill="black"/>
<path d="M121.338 20.5368C120.675 20.5518 120.027 20.7101 119.425 20.9963C118.83 21.2826 118.295 21.697 117.873 22.2093L118.001 21.7648L118.483 20.0923H113.579L113.044 21.9456H115.59L114.038 27.3548C111.552 28.7712 110.482 29.2382 109.947 29.2382C109.412 29.2382 109.232 28.9369 109.412 28.3267L111.74 20.0923H109.412L107.634 26.2775C105.638 28.4246 104.628 29.2382 103.566 29.2382C102.504 29.2382 102.127 28.402 102.504 27.061L104.448 20.0923H96.7858L96.266 21.9381H101.69H101.615L100.101 27.2795C99.4452 29.5622 100.462 31.2573 102.398 31.2573C103.86 31.2573 105.171 30.3231 107.19 27.8671L107.137 28.0705C106.58 30.0971 107.341 31.2573 109.209 31.2573C110.121 31.2573 111.205 30.8957 113.36 29.7279L111.559 36.0186H113.91L116.035 28.6054C116.23 29.4567 116.667 30.2252 117.293 30.8354L117.504 31.0237L117.556 31.0689L117.677 31.1593C118.4 31.6716 119.266 31.9353 120.148 31.9203C123.32 31.9203 125.723 29.2382 125.723 25.6899C125.723 22.6613 123.983 20.5292 121.331 20.5292L121.338 20.5368ZM119.952 29.969C118.325 29.969 117.142 28.8088 117.142 26.8274C117.142 24.5372 118.701 22.488 120.766 22.488C122.416 22.488 123.508 23.7311 123.508 25.6673C123.508 28.0931 121.994 29.9615 119.96 29.9615L119.952 29.969Z" fill="black"/>
<path d="M134.839 28.6581C134.839 26.4959 132.873 25.8405 131.245 25.3207C130.078 24.9515 129.083 24.6276 129.083 23.8365C129.083 23.0455 129.836 22.5407 131.072 22.5407C132.202 22.5407 133.294 22.9023 134.206 23.5653H134.251V21.6216C133.264 21.0038 132.127 20.6724 130.967 20.6724C128.571 20.6724 126.989 21.9682 126.989 23.9947C126.989 26.0213 128.819 26.6617 130.409 27.174C131.629 27.5733 132.714 27.9198 132.714 28.8615C132.714 29.6827 131.878 30.2025 130.582 30.2025C129.241 30.1498 127.953 29.6827 126.891 28.8615H126.815V30.8052C128.013 31.5661 129.4 31.973 130.823 31.9805C133.068 31.9805 134.839 30.8203 134.839 28.6581Z" fill="black"/>
<path d="M103.593 69.6255H99.3832V43.109H103.593V69.6255ZM119.091 49.9102C123.787 49.9102 126.54 53.1489 126.54 58.3307V69.6255H122.491V59.3428C122.491 54.7277 120.508 53.3513 118.038 53.3513C115.569 53.3513 113.261 55.254 113.261 59.7071V69.6255H109.213V50.396H112.371L112.776 53.6751C113.788 51.8129 115.893 49.9102 119.091 49.9102ZM136.374 50.396H141.677V53.7156H136.374V69.6255H132.326V53.7156H129.37V50.396H132.326V49.3434C132.326 45.0522 135.119 43.2305 138.317 43.2305C139.41 43.2305 140.503 43.4329 141.353 43.8377V46.8335H141.272C140.625 46.5501 139.937 46.3882 139.248 46.3882C136.374 46.3882 136.374 48.8576 136.374 49.7483V50.396ZM153.265 70.2327C147.517 70.2327 143.306 65.9415 143.306 59.9905C143.306 54.2824 147.517 49.8292 153.265 49.8292C158.933 49.8292 163.184 54.2824 163.184 59.9905C163.184 65.9415 158.892 70.2327 153.265 70.2327ZM153.265 66.6702C156.99 66.6702 159.054 63.5935 159.054 59.9905C159.054 56.428 156.99 53.3918 153.265 53.3918C149.541 53.3918 147.436 56.428 147.436 59.9905C147.436 63.5935 149.581 66.6702 153.265 66.6702ZM176.399 49.9507C177.452 49.9507 178.545 50.2746 179.031 50.5175V54.0395C178.424 53.7966 177.29 53.4322 176.116 53.4322C173.809 53.4322 171.258 55.3349 171.258 60.3144V69.6255H167.21V50.396H170.368L170.813 54.0395C171.784 51.7724 173.485 49.9507 176.399 49.9507ZM203.725 49.9102C208.097 49.9102 210.607 53.1489 210.607 58.3307V69.6255H206.558V59.3428C206.558 54.7277 204.98 53.3513 202.672 53.3513C200.526 53.3513 198.543 55.254 198.543 59.7071V69.6255H194.495V59.3428C194.495 54.7277 192.916 53.3513 190.608 53.3513C188.463 53.3513 186.479 55.254 186.479 59.7071V69.6255H182.431V50.396H185.588L185.953 53.5537C186.762 51.8129 188.624 49.9102 191.701 49.9102C194.656 49.9102 196.762 51.5295 197.733 53.8776C198.502 51.9748 200.405 49.9102 203.725 49.9102ZM223.459 49.8292C227.467 49.8292 231.556 51.489 231.556 56.4685V69.6255H228.439L228.074 66.6702C227.022 68.3705 224.998 70.1923 221.516 70.1923C217.873 70.1923 214.472 68.0871 214.472 64.2007C214.472 59.7071 218.52 58.2902 222.973 58.2902C225.929 58.2902 227.548 58.1283 227.548 56.2256C227.548 54.4848 225.888 53.4322 223.135 53.4322C219.816 53.4322 217.265 54.8896 215.848 56.2256H215.767L215.889 52.5821C217.468 51.2461 220.585 49.8292 223.459 49.8292ZM222.407 66.9536C225.605 66.9536 227.831 64.727 227.831 61.8932V59.8691C226.941 61.0431 225.119 61.286 222.731 61.286C220.221 61.286 218.48 62.1766 218.48 64.1198C218.48 66.0225 220.463 66.9536 222.407 66.9536ZM247.37 50.396V53.7156H241.661V62.4195C241.661 65.2128 242.147 66.6702 244.171 66.6702C245.305 66.6702 246.398 66.1844 247.005 65.8606H247.086V68.8968C246.438 69.4231 244.819 70.1113 242.876 70.1113C237.613 70.1113 237.613 65.3343 237.613 64.0388V53.7156H234.334V50.396H237.613V46.793L241.581 43.7163H241.661V50.396H247.37ZM253.126 46.5501C251.587 46.5501 250.454 45.4571 250.454 44.0806C250.454 42.7042 251.587 41.6112 253.126 41.6112C254.705 41.6112 255.838 42.7042 255.838 44.0806C255.838 45.4571 254.705 46.5501 253.126 46.5501ZM255.15 69.6255H251.102V50.396H255.15V69.6255ZM269.101 70.2327C263.352 70.2327 259.142 65.9415 259.142 59.9905C259.142 54.2824 263.352 49.8292 269.101 49.8292C274.768 49.8292 279.019 54.2824 279.019 59.9905C279.019 65.9415 274.728 70.2327 269.101 70.2327ZM269.101 66.6702C272.825 66.6702 274.89 63.5935 274.89 59.9905C274.89 56.428 272.825 53.3918 269.101 53.3918C265.376 53.3918 263.271 56.428 263.271 59.9905C263.271 63.5935 265.417 66.6702 269.101 66.6702ZM292.923 49.9102C297.619 49.9102 300.372 53.1489 300.372 58.3307V69.6255H296.324V59.3428C296.324 54.7277 294.34 53.3513 291.871 53.3513C289.401 53.3513 287.094 55.254 287.094 59.7071V69.6255H283.045V50.396H286.203L286.608 53.6751C287.62 51.8129 289.725 49.9102 292.923 49.9102Z" fill="black"/>
<path d="M318.593 58.5736V65.9415H330.172V69.6255H314.383V43.7163H330.05V47.4003H318.593V54.8896H329.281V58.5736H318.593ZM351.002 50.477L344.687 59.7881L351.326 69.5445V69.6255H346.59L341.691 61.8527L337.319 69.6255H332.542V69.5445L338.615 59.7881L332.704 50.477V50.396H337.562L341.894 57.7639L346.225 50.396H351.002V50.477ZM365.273 50.396V53.7156H359.565V62.4195C359.565 65.2128 360.051 66.6702 362.075 66.6702C363.209 66.6702 364.302 66.1844 364.909 65.8606H364.99V68.8968C364.342 69.4231 362.723 70.1113 360.78 70.1113C355.517 70.1113 355.517 65.3343 355.517 64.0388V53.7156H352.238V50.396H355.517V46.793L359.484 43.7163H359.565V50.396H365.273ZM378.195 49.9507C379.248 49.9507 380.341 50.2746 380.826 50.5175V54.0395C380.219 53.7966 379.086 53.4322 377.912 53.4322C375.604 53.4322 373.054 55.3349 373.054 60.3144V69.6255H369.005V50.396H372.163L372.608 54.0395C373.58 51.7724 375.28 49.9507 378.195 49.9507ZM391.295 49.8292C395.303 49.8292 399.391 51.489 399.391 56.4685V69.6255H396.274L395.91 66.6702C394.857 68.3705 392.833 70.1923 389.352 70.1923C385.708 70.1923 382.308 68.0871 382.308 64.2007C382.308 59.7071 386.356 58.2902 390.809 58.2902C393.764 58.2902 395.384 58.1283 395.384 56.2256C395.384 54.4848 393.724 53.4322 390.971 53.4322C387.651 53.4322 385.101 54.8896 383.684 56.2256H383.603L383.724 52.5821C385.303 51.2461 388.421 49.8292 391.295 49.8292ZM390.242 66.9536C393.44 66.9536 395.667 64.727 395.667 61.8932V59.8691C394.776 61.0431 392.955 61.286 390.566 61.286C388.056 61.286 386.315 62.1766 386.315 64.1198C386.315 66.0225 388.299 66.9536 390.242 66.9536ZM413.019 70.2327C407.23 70.2327 403.02 65.9415 403.02 59.9905C403.02 54.2824 407.23 49.8292 413.06 49.8292C416.46 49.8292 418.606 51.0437 419.82 51.9344V55.6183H419.739C418.444 54.4848 416.258 53.3918 413.505 53.3918C409.861 53.3918 407.149 55.6993 407.149 59.9905C407.149 64.2412 409.861 66.6702 413.505 66.6702C416.46 66.6702 418.565 65.4152 419.901 64.2007H419.982V67.9252C418.768 68.9373 416.703 70.2327 413.019 70.2327ZM435.565 50.396V53.7156H429.857V62.4195C429.857 65.2128 430.343 66.6702 432.367 66.6702C433.501 66.6702 434.594 66.1844 435.201 65.8606H435.282V68.8968C434.634 69.4231 433.015 70.1113 431.072 70.1113C425.809 70.1113 425.809 65.3343 425.809 64.0388V53.7156H422.53V50.396H425.809V46.793L429.776 43.7163H429.857V50.396H435.565Z" fill="black"/>
<defs>
<clipPath id="clip0_20_3441">
<rect width="57.266" height="63.3614" fill="white" transform="translate(20 14)"/>
</clipPath>
</defs>
</svg>
