<svg width="419" height="86" viewBox="0 0 419 86" fill="none" xmlns="http://www.w3.org/2000/svg">
<g clip-path="url(#clip0_20_3431)">
<path d="M78 65.605L40.0547 59.3103V61.0541L70.8032 69.6645L71.516 72.0527L78 73.9777V65.609V65.605Z" fill="white"/>
<path d="M56.6593 56.325L19 67.0497V58.681L51.8064 53.5542L55.9948 53.9811L56.6593 56.325Z" fill="white"/>
<path d="M56.9493 45.2018V47.1832L19 53.4618V45.093L43.49 44.1909H43.4941L56.9493 45.2018Z" fill="white"/>
<path d="M56.9493 34.9123V37.4214L19 39.8619V31.4932L40.0547 32.8463L49.1887 33.4343L49.8008 35.1781L56.9493 34.9123Z" fill="white"/>
<path d="M78 52.0162V60.381L56.6633 56.3255H56.6593L55.9948 53.9816L51.8064 53.5547L40.0547 52.3626V50.6147L78 52.0162Z" fill="white"/>
<path d="M78 38.4163V46.785L56.9493 45.2023L43.4941 44.1914H43.49L43.0873 42.81L40.0547 42.6006V40.8528L78 38.4163Z" fill="white"/>
<path d="M19 26.2696L56.9493 27.6671V24.1754L19 17.9009V26.2696Z" fill="white"/>
<path d="M78 25.7625V34.1272L56.9493 34.9125L49.8008 35.1783L49.1887 33.4345L40.0547 32.8465V32.037L78 25.7625Z" fill="white"/>
</g>
<path d="M135.674 29.0087C135.674 29.7232 135.674 32.3728 138.584 32.3728C139.403 32.4025 140.221 32.1793 140.913 31.7327V30.0507H140.869C140.385 30.3186 139.857 30.4749 139.306 30.4972C138.189 30.4972 137.921 29.6934 137.921 28.1379V23.3077H141.077V21.4619H137.921V17.7629H137.877L135.681 19.4673V21.4619H133.865V23.3077H135.681V29.0087H135.674Z" fill="white"/>
<path d="M158.076 31.9557C158.783 31.9781 159.49 31.8292 160.123 31.5092C160.755 31.1966 161.306 30.7352 161.723 30.1546V31.0105C161.723 33.2359 160.376 34.449 158.411 34.449C156.781 34.449 155.203 33.8983 153.931 32.8786H153.886V34.9179C155.24 35.9301 156.9 36.4511 158.582 36.399C161.76 36.399 163.956 34.4713 163.956 30.5863V21.4617H162.236L161.991 23.2851C161.619 22.6153 161.068 22.072 160.413 21.6924C159.751 21.3203 158.999 21.1416 158.24 21.1714C155.508 21.1714 153.201 23.3 153.201 26.5599C153.201 29.8197 155.441 31.9483 158.076 31.9483V31.9557ZM158.701 23.1065C160.718 23.1065 161.842 24.7885 161.842 26.5375C161.842 28.2865 160.718 30.0207 158.701 30.0207C156.535 30.0207 155.501 28.3312 155.501 26.5375C155.501 24.7439 156.461 23.1065 158.701 23.1065Z" fill="white"/>
<path d="M104.043 16.8398H98.9892L98.4756 18.6558H103.514L104.043 16.8398Z" fill="white"/>
<path d="M151.631 24.8337C151.631 22.0725 149.368 21.1496 147.15 21.1794C145.632 21.2315 144.166 21.7674 142.968 22.7051L142.901 24.7295H142.945C144.054 23.7099 145.498 23.1517 147.002 23.1591C148.497 23.1591 149.443 23.628 149.443 24.6774C149.443 25.7268 148.52 25.8236 146.89 25.8236C144.426 25.8236 142.194 26.6051 142.194 29.1058C142.194 31.2567 144.069 32.4326 146.086 32.4326C146.808 32.4624 147.523 32.2987 148.163 31.9637C148.795 31.6288 149.339 31.1227 149.718 30.5124L149.919 32.1498H151.646V24.8337H151.631ZM149.554 27.848C149.554 28.235 149.465 28.6146 149.316 28.9718C149.16 29.3216 148.937 29.6416 148.654 29.9021C148.371 30.1626 148.043 30.371 147.679 30.4975C147.314 30.6315 146.935 30.6836 146.548 30.6613C145.468 30.6613 144.382 30.1701 144.382 29.0909C144.382 28.0117 145.401 27.5205 146.726 27.5205C148.051 27.5205 149.056 27.3791 149.554 26.739V27.8629V27.848Z" fill="white"/>
<path d="M171.063 21.1194C170.319 21.1194 169.582 21.2608 168.898 21.5511C168.213 21.8339 167.588 22.2581 167.074 22.7865C166.561 23.315 166.159 23.9401 165.891 24.6248C165.623 25.3096 165.504 26.0464 165.533 26.7758C165.533 30.1547 167.87 32.4173 171.227 32.4173C172.797 32.4396 174.323 31.8888 175.507 30.8692V28.9564H175.462C174.911 29.47 174.264 29.8644 173.557 30.1249C172.85 30.378 172.098 30.4896 171.339 30.4524C169.27 30.4524 167.937 29.3137 167.937 28.2196C167.937 27.5721 168.444 27.4828 169.091 27.4828H175.931V25.2649C175.797 24.0964 175.224 23.0172 174.316 22.2507C173.408 21.4841 172.247 21.0822 171.056 21.1268L171.063 21.1194ZM169.411 25.838C168.816 25.8082 168.235 25.9794 167.759 26.3292C167.893 24.4239 168.92 23.0842 170.862 23.0842C171.242 23.0693 171.614 23.1214 171.964 23.2554C172.314 23.3819 172.634 23.5903 172.902 23.8434C173.17 24.0964 173.378 24.409 173.512 24.7588C173.653 25.1012 173.72 25.4733 173.705 25.838H169.418H169.411Z" fill="white"/>
<path d="M119.769 21.0968C119.114 21.1117 118.474 21.268 117.879 21.5508C117.291 21.8336 116.762 22.243 116.345 22.7491L116.472 22.31L116.948 20.6577H112.103L111.575 22.4886H114.09L112.557 27.8324C110.101 29.2316 109.044 29.693 108.516 29.693C107.987 29.693 107.809 29.3953 107.987 28.7925L110.287 20.6577H107.987L106.231 26.7681C104.259 28.8892 103.261 29.693 102.212 29.693C101.162 29.693 100.79 28.8669 101.162 27.5421L103.083 20.6577H95.5135L95 22.4812H100.359H100.284L98.7883 27.758C98.1408 30.0131 99.1455 31.6876 101.058 31.6876C102.502 31.6876 103.797 30.7648 105.792 28.3385L105.74 28.5394C105.189 30.5415 105.941 31.6876 107.786 31.6876C108.687 31.6876 109.759 31.3304 111.887 30.1768L110.108 36.3914H112.431L114.529 29.0679C114.723 29.9089 115.155 30.668 115.772 31.2709L115.981 31.4569L116.033 31.5016L116.152 31.5909C116.866 32.097 117.722 32.3575 118.593 32.3426C121.726 32.3426 124.101 29.693 124.101 26.1876C124.101 23.1956 122.381 21.0894 119.762 21.0894L119.769 21.0968ZM118.4 30.415C116.792 30.415 115.623 29.2688 115.623 27.3114C115.623 25.0488 117.164 23.0245 119.203 23.0245C120.833 23.0245 121.912 24.2525 121.912 26.1652C121.912 28.5618 120.416 30.4075 118.407 30.4075L118.4 30.415Z" fill="white"/>
<path d="M133.106 29.1201C133.106 26.9841 131.164 26.3366 129.556 25.823C128.402 25.4584 127.42 25.1383 127.42 24.3568C127.42 23.5754 128.164 23.0767 129.385 23.0767C130.501 23.0767 131.58 23.434 132.481 24.0889H132.526V22.1687C131.551 21.5584 130.427 21.231 129.281 21.231C126.914 21.231 125.351 22.5111 125.351 24.5131C125.351 26.5152 127.16 27.1478 128.73 27.6539C129.936 28.0484 131.007 28.3907 131.007 29.3211C131.007 30.1323 130.181 30.6458 128.901 30.6458C127.576 30.5937 126.304 30.1323 125.254 29.3211H125.18V31.2413C126.363 31.993 127.733 32.3949 129.139 32.4023C131.357 32.4023 133.106 31.2561 133.106 29.1201Z" fill="white"/>
<path d="M98.0795 44.4316H106.078C115.557 44.4316 120.476 49.6707 120.476 57.1895C120.476 64.7482 115.517 70.0273 106.078 70.0273H98.0795V44.4316ZM102.239 66.3879H106.158C112.597 66.3879 116.236 63.3085 116.236 57.3094C116.236 51.1105 112.357 48.071 106.238 48.071H102.239V66.3879ZM133.422 70.6272C127.743 70.6272 123.584 66.3879 123.584 60.5089C123.584 54.8698 127.743 50.4706 133.422 50.4706C139.021 50.4706 143.22 54.8698 143.22 60.5089C143.22 66.3879 138.981 70.6272 133.422 70.6272ZM133.422 67.1078C137.101 67.1078 139.141 64.0683 139.141 60.5089C139.141 56.9895 137.101 53.99 133.422 53.99C129.743 53.99 127.663 56.9895 127.663 60.5089C127.663 64.0683 129.783 67.1078 133.422 67.1078ZM156.036 70.6272C150.317 70.6272 146.158 66.3879 146.158 60.5089C146.158 54.8698 150.317 50.4706 156.076 50.4706C159.436 50.4706 161.556 51.6704 162.755 52.5502V56.1896H162.675C161.396 55.0698 159.236 53.99 156.516 53.99C152.917 53.99 150.237 56.2696 150.237 60.5089C150.237 64.7082 152.917 67.1078 156.516 67.1078C159.436 67.1078 161.516 65.868 162.835 64.6682H162.915V68.3476C161.716 69.3475 159.676 70.6272 156.036 70.6272ZM179.95 60.8289V51.0305H183.949V70.0273H180.87L180.47 66.7879C179.51 68.6276 177.43 70.5073 174.231 70.5073C169.791 70.5073 167.112 67.3078 167.112 62.1886V51.0305H171.111V61.1888C171.111 65.748 172.911 67.1078 175.311 67.1078C177.67 67.1078 179.95 65.2281 179.95 60.8289ZM209.946 50.5506C214.266 50.5506 216.745 53.75 216.745 58.8692V70.0273H212.746V59.869C212.746 55.3098 211.186 53.95 208.907 53.95C206.787 53.95 204.827 55.8297 204.827 60.229V70.0273H200.828V59.869C200.828 55.3098 199.268 53.95 196.988 53.95C194.869 53.95 192.909 55.8297 192.909 60.229V70.0273H188.91V51.0305H192.029L192.389 54.15C193.189 52.4302 195.029 50.5506 198.068 50.5506C200.988 50.5506 203.067 52.1503 204.027 54.4699C204.787 52.5902 206.667 50.5506 209.946 50.5506ZM238.801 61.7487H226.763C225.643 61.7487 224.723 61.9087 224.723 63.0685C224.723 65.0282 227.083 67.0678 230.722 67.0678C234.401 67.0678 236.881 65.6281 238.001 64.3883H238.081L238.041 67.8677C236.881 68.9475 234.241 70.6272 230.482 70.6272C224.563 70.6272 220.444 66.5879 220.444 60.5489C220.444 54.8698 224.563 50.4306 230.202 50.4306C234.921 50.4306 238.161 53.5101 238.801 57.8294V61.7487ZM224.403 59.709C225.003 59.2291 225.883 58.8292 227.323 58.8292H234.881C234.881 56.0696 232.962 53.91 229.882 53.91C226.443 53.91 224.643 56.3096 224.403 59.709ZM252.527 50.5506C257.166 50.5506 259.885 53.75 259.885 58.8692V70.0273H255.886V59.869C255.886 55.3098 253.926 53.95 251.487 53.95C249.047 53.95 246.767 55.8297 246.767 60.229V70.0273H242.768V51.0305H245.888L246.288 54.2699C247.287 52.4302 249.367 50.5506 252.527 50.5506ZM275.56 51.0305V54.3099H269.921V62.9085C269.921 65.6681 270.4 67.1078 272.4 67.1078C273.52 67.1078 274.6 66.6279 275.2 66.308H275.28V69.3075C274.64 69.8274 273.04 70.5073 271.12 70.5073C265.921 70.5073 265.921 65.788 265.921 64.5083V54.3099H262.682V51.0305H265.921V47.4711L269.841 44.4316H269.921V51.0305H275.56Z" fill="white"/>
<path d="M300.838 70.5473C293.279 70.5473 287.68 64.9882 287.68 57.3494C287.68 49.6707 293.239 43.8717 300.838 43.8717C304.637 43.8717 307.276 45.0715 308.756 45.9913L308.796 49.9507H308.716C307.476 49.0308 304.957 47.591 300.958 47.591C295.638 47.591 291.919 51.5504 291.919 57.1495C291.919 62.9885 295.718 66.8279 301.157 66.8279C304.717 66.8279 307.516 65.3481 308.836 64.3483H308.956L308.916 68.2276C307.476 69.2675 304.477 70.5473 300.838 70.5473ZM317.319 70.0273H313.319V44.4316H317.319V70.0273ZM330.301 50.4706C334.26 50.4706 338.299 52.1103 338.299 57.0295V70.0273H335.22L334.86 67.1078C333.82 68.7875 331.821 70.5873 328.381 70.5873C324.782 70.5873 321.422 68.5076 321.422 64.6682C321.422 60.229 325.422 58.8292 329.821 58.8292C332.74 58.8292 334.34 58.6692 334.34 56.7895C334.34 55.0698 332.7 54.03 329.981 54.03C326.701 54.03 324.182 55.4697 322.782 56.7895H322.702L322.822 53.1901C324.382 51.8703 327.461 50.4706 330.301 50.4706ZM329.261 67.3878C332.42 67.3878 334.62 65.1881 334.62 62.3886V60.3889C333.74 61.5487 331.941 61.7887 329.581 61.7887C327.101 61.7887 325.382 62.6686 325.382 64.5882C325.382 66.4679 327.341 67.3878 329.261 67.3878ZM349.163 70.5473C346.203 70.5473 343.644 69.4274 342.084 68.4276V64.9482H342.164C343.684 66.068 346.043 67.3078 348.683 67.3078C351.002 67.3078 352.442 66.3879 352.442 64.9482C352.442 61.1488 342.324 62.8285 342.324 56.3896C342.324 52.8302 345.123 50.5506 349.363 50.5506C352.002 50.5506 354.082 51.5504 355.202 52.2703V55.7097H355.122C353.842 54.8299 352.082 53.91 349.603 53.91C347.403 53.91 346.083 54.8299 346.083 56.2296C346.083 59.5891 356.242 58.1093 356.242 64.7082C356.242 68.5076 353.122 70.5473 349.163 70.5473ZM366.504 70.5473C363.544 70.5473 360.985 69.4274 359.425 68.4276V64.9482H359.505C361.024 66.068 363.384 67.3078 366.024 67.3078C368.343 67.3078 369.783 66.3879 369.783 64.9482C369.783 61.1488 359.665 62.8285 359.665 56.3896C359.665 52.8302 362.464 50.5506 366.704 50.5506C369.343 50.5506 371.423 51.5504 372.543 52.2703V55.7097H372.463C371.183 54.8299 369.423 53.91 366.944 53.91C364.744 53.91 363.424 54.8299 363.424 56.2296C363.424 59.5891 373.582 58.1093 373.582 64.7082C373.582 68.5076 370.463 70.5473 366.504 70.5473ZM379.605 47.2311C378.085 47.2311 376.966 46.1513 376.966 44.7915C376.966 43.4317 378.085 42.3519 379.605 42.3519C381.165 42.3519 382.285 43.4317 382.285 44.7915C382.285 46.1513 381.165 47.2311 379.605 47.2311ZM381.605 70.0273H377.606V51.0305H381.605V70.0273ZM391.628 51.0305H396.867V54.3099H391.628V70.0273H387.628V54.3099H384.709V51.0305H387.628V49.9906C387.628 45.7513 390.388 43.9516 393.547 43.9516C394.627 43.9516 395.707 44.1516 396.547 44.5515V47.5111H396.467C395.827 47.2311 395.147 47.0711 394.467 47.0711C391.628 47.0711 391.628 49.5107 391.628 50.3906V51.0305ZM413.287 51.0305H417.727L406.289 77.2262H402.169L406.089 68.5076L398.41 51.0305H402.849C404.409 55.1098 406.449 60.109 408.008 64.4283H408.168C409.808 60.149 411.568 55.3098 413.287 51.0305Z" fill="white"/>
<defs>
<clipPath id="clip0_20_3431">
<rect width="59" height="56.0721" fill="white" transform="translate(19 17.9006)"/>
</clipPath>
</defs>
</svg>
